<svg width="161" height="29" viewBox="0 0 161 29" fill="none" xmlns="http://www.w3.org/2000/svg">
<path d="M25.3182 0.115234H34.586L23.6549 28.0566H11.9155L0.984375 0.115234H10.2522L17.7852 19.3704L25.3182 0.115234ZM107.351 0.115234L118.282 28.0566H109.014L107.24 23.525H95.72L93.9458 28.0566H84.678L95.6091 0.115234H107.349H107.351ZM101.481 8.80149L98.6204 16.1127H104.342L101.481 8.80149ZM41.402 28.0566H50.5934V0.115234H41.402V28.0566ZM68.9737 0.115234H59.7823V28.0566H78.4904L82.0857 18.8652H68.9713V0.115234H68.9737ZM128.693 0.115234L125.098 9.30665H131.48V28.0566H140.672V0.115234H128.693ZM148.254 0.115234L144.659 9.30665H151.041V28.0566H160.232V0.115234H148.254Z" fill="#272C56"/>
</svg>
